#!OML:ASF F:\VICON\USERDATA\INSTALL\rory3\rory3.ASF
:FULLY-SPECIFIED
:DEGREES
123
root 0.113288 17.6291 -5.61667 -1.52188 1.80668 2.2473
lowerback 9.82989 -1.35315 -4.73049
upperback 0.111482 -2.26013 1.43467
thorax -5.16087 -0.979417 4.48786
lowerneck -16.689 -2.92868 -1.88984
upperneck 21.0739 -3.61266 0.141657
head 9.44498 -1.82161 -0.10523
rclavicle -8.49804e-015 3.18055e-015
rhumerus -37.7924 -22.4786 -71.7556
rradius 21.8716
rwrist 7.7461
rhand -17.2551 24.103
rfingers 7.12502
rthumb 8.98919 -5.68548
lclavicle -8.49804e-015 3.18055e-015
lhumerus -22.9018 -3.77642 80.3685
lradius 31.7166
lwrist 8.5766
lhand -31.7175 19.4913
lfingers 7.12502
lthumb -4.97592 49.4129
rfemur -29.1956 5.19581 18.0029
rtibia 18.5775
rfoot -9.5824 -8.91716
rtoes -3.40993
lfemur 16.1627 -3.15479 -27.2924
ltibia 16.0135
lfoot -17.1913 -5.47946
ltoes -3.38289
124
root 0.0934134 17.6285 -5.41811 -1.48195 1.68333 2.18979
lowerback 9.71117 -1.27993 -4.71476
upperback 0.239045 -2.15257 1.44474
thorax -4.97184 -0.935316 4.46717
lowerneck -17.1952 -2.98758 -1.73792
upperneck 21.1882 -3.68066 -0.0468367
head 9.57217 -1.85996 -0.213584
rclavicle 6.65929e-015 -1.43125e-014
rhumerus -37.6644 -23.2354 -71.5112
rradius 21.4145
rwrist 8.32836
rhand -17.6859 22.9624
rfingers 7.12502
rthumb 8.57343 -6.84356
lclavicle 6.65929e-015 -1.43125e-014
lhumerus -22.5272 -3.51256 80.2497
lradius 31.7302
lwrist 8.64835
lhand -31.2177 17.9636
lfingers 7.12502
lthumb -4.49338 47.896
rfemur -29.6187 4.78658 18.5318
rtibia 20.3018
rfoot -7.50138 -8.522
rtoes -5.80787
lfemur 16.43 -3.5213 -27.2801
ltibia 16.517
lfoot -16.541 -6.07819
ltoes -3.5966
125
root 0.076743 17.6409 -5.21878 -1.48339 1.61795 1.92863
lowerback 9.6937 -1.26708 -4.4625
upperback 0.20457 -2.10244 1.53418
thorax -5.00915 -0.913726 4.41223
lowerneck -16.9966 -2.92412 -1.73811
upperneck 21.04 -3.59627 -0.0404922
head 9.48285 -1.82108 -0.195441
rclavicle 3.67752e-015 -1.51076e-014
rhumerus -37.8861 -23.6057 -71.1658
rradius 21.0588
rwrist 8.8536
rhand -17.886 22.4314
rfingers 7.12502
rthumb 8.38034 -7.38239
lclavicle 3.67752e-015 -1.51076e-014
lhumerus -22.5407 -3.47613 80.3571
lradius 31.7709
lwrist 8.40186
lhand -32.1688 20.5741
lfingers 7.12502
lthumb -5.41173 50.485
rfemur -29.9637 5.05553 18.8613
rtibia 21.9338
rfoot -6.01273 -8.94465
rtoes -3.66051
lfemur 16.6846 -3.93471 -27.0751
ltibia 17.2819
lfoot -16.1004 -6.47326
ltoes -5.43781
126
root 0.0637757 17.6477 -5.02152 -1.54862 1.46405 1.62139
lowerback 9.78265 -1.2345 -4.05856
upperback 0.120602 -2.0158 1.58268
thorax -5.16838 -0.873858 4.22866
lowerneck -16.8232 -2.87528 -1.6902
upperneck 21.1605 -3.54594 -0.0431223
head 9.49152 -1.79479 -0.196087
rclavicle -1.4387e-014 4.37326e-015
rhumerus -38.3982 -24.3064 -70.5856
rradius 20.7285
rwrist 9.61371
rhand -17.6631 22.4549
rfingers 7.12502
rthumb 8.59546 -7.35017
lclavicle -1.4387e-014 4.37326e-015
lhumerus -22.7888 -3.81217 80.5307
lradius 32.0373
lwrist 8.06995
lhand -33.1227 24.7804
lfingers 7.12502
lthumb -6.33262 54.6657
rfemur -30.2908 5.26018 19.2339
rtibia 23.5282
rfoot -5.12064 -9.23329
rtoes -0.723308
lfemur 16.9845 -4.25524 -26.8847
ltibia 18.2419
lfoot -15.7025 -6.28198
ltoes -8.25883
127
root 0.0498615 17.653 -4.81985 -1.72344 1.30064 1.09357
lowerback 9.92833 -1.24875 -3.50289
upperback 0.082718 -1.96851 1.7323
thorax -5.30764 -0.858257 4.07165
lowerneck -16.407 -2.85582 -1.64734
upperneck 20.9597 -3.50763 -0.167489
head 9.3407 -1.78973 -0.232326
rclavicle 2.04003e-014 3.97569e-016
rhumerus -38.6701 -25.3852 -69.7602
rradius 19.9379
rwrist 10.9231
rhand -17.5976 22.6376
rfingers 7.12502
rthumb 8.6587 -7.16485
lclavicle 2.04003e-014 3.97569e-016
lhumerus -23.0597 -3.75129 80.659
lradius 32.3565
lwrist 8.01251
lhand -33.3328 27.3258
lfingers 7.12502
lthumb -6.53549 57.205
rfemur -30.3704 5.10193 20.0479
rtibia 24.9665
rfoot -4.97229 -8.82873
rtoes 0.153636
lfemur 17.0975 -4.63682 -26.4579
ltibia 19.4909
lfoot -14.8389 -6.35277
ltoes -9.62535
128
root 0.0374821 17.6558 -4.61287 -1.79008 1.12263 0.91919
lowerback 9.86561 -1.22972 -3.24269
upperback 0.132429 -1.90997 1.75454
thorax -5.23297 -0.83853 3.93599
lowerneck -16.3705 -2.78591 -1.57761
upperneck 20.8894 -3.41843 -0.211814
head 9.30653 -1.74779 -0.246305
rclavicle 1.52319e-014 1.47101e-014
rhumerus -38.7426 -27.4154 -68.5426
rradius 18.8098
rwrist 13.0747
rhand -17.2679 23.0942
rfingers 7.12502
rthumb 8.97687 -6.69481
lclavicle 1.52319e-014 1.47101e-014
lhumerus -23.1474 -2.91909 80.4583
lradius 32.1371
lwrist 8.21888
lhand -32.5396 21.6094
lfingers 7.12502
lthumb -5.76975 51.5108
rfemur -30.4853 4.84526 20.4619
rtibia 26.2309
rfoot -4.81735 -7.87093
rtoes -0.557667
lfemur 16.8523 -5.01995 -26.4189
ltibia 21.0715
lfoot -13.6609 -6.57497
ltoes -9.51559
129
root 0.028302 17.653 -4.40366 -2.01076 0.768314 0.707903
lowerback 10.0581 -1.18319 -2.97438
upperback 0.176025 -1.81744 1.83428
thorax -5.30914 -0.797434 3.86115
lowerneck -16.6629 -2.66227 -1.46866
upperneck 21.1967 -3.22278 -0.418887
head 9.46077 -1.67039 -0.318003
rclavicle -1.41634e-015 -6.75868e-015
rhumerus -38.818 -28.6705 -67.6013
rradius 17.9496
rwrist 14.5342
rhand -17.0305 23.2557
rfingers 7.12502
rthumb 9.20592 -6.52337
lclavicle -1.41634e-015 -6.75868e-015
lhumerus -23.444 -2.30947 80.4232
lradius 32.0317
lwrist 8.42548
lhand -32.1941 19.5663
lfingers 7.12502
lthumb -5.43614 49.4766
rfemur -30.3677 4.7315 20.9062
rtibia 27.3238
rfoot -4.14392 -7.03044
rtoes -1.23149
lfemur 16.7385 -5.05913 -26.3431
ltibia 22.9039
lfoot -12.6933 -6.46768
ltoes -11.2209
130
root 0.0153485 17.6488 -4.19604 -2.19205 0.454734 0.357578
lowerback 10.254 -1.14802 -2.6307
upperback 0.136646 -1.72683 1.97233
thorax -5.47425 -0.755453 3.80707
lowerneck -16.7921 -2.54606 -1.47366
upperneck 21.4551 -3.03493 -0.516461
head 9.57307 -1.59447 -0.331001
rclavicle 1.13556e-014 0
rhumerus -39.073 -29.4148 -66.8798
rradius 17.3708
rwrist 15.7107
rhand -17.3357 22.9245
rfingers 7.12502
rthumb 8.91146 -6.86734
lclavicle 1.13556e-014 0
lhumerus -23.7459 -1.80099 80.4851
lradius 31.835
lwrist 8.2799
lhand -32.0803 20.959
lfingers 7.12502
lthumb -5.32627 50.8721
rfemur -30.2038 4.43316 21.5857
rtibia 28.412
rfoot -3.14675 -6.46184
rtoes -0.76236
lfemur 16.491 -4.93775 -25.9822
ltibia 24.8275
lfoot -11.5207 -7.43748
ltoes -12.0125
131
root 0.000387926 17.6587 -3.98858 -2.28078 0.502457 0.0588
lowerback 10.1202 -1.21982 -2.35813
upperback 0.249314 -1.78092 2.10375
thorax -5.27988 -0.793488 3.79106
lowerneck -16.8817 -2.50068 -1.49637
upperneck 21.3724 -2.94253 -0.600391
head 9.55932 -1.5628 -0.344619
rclavicle 3.32964e-015 -1.11319e-014
rhumerus -39.0823 -30.3982 -66.2239
rradius 16.8557
rwrist 16.8841
rhand -17.3721 23.2776
rfingers 7.12502
rthumb 8.87628 -6.51567
lclavicle 3.32964e-015 -1.11319e-014
lhumerus -23.7677 -1.15511 80.575
lradius 31.6333
lwrist 8.04879
lhand -32.4639 21.7809
lfingers 7.12502
lthumb -5.69664 51.6844
rfemur -30.0608 3.78373 22.1898
rtibia 29.5158
rfoot -2.61722 -5.84164
rtoes 2.24726
lfemur 15.9514 -4.85285 -25.4963
ltibia 26.8584
lfoot -10.2014 -8.00863
ltoes -15.0131
132
root -0.0155357 17.6745 -3.77626 -2.39448 0.700484 0.0823966
lowerback 9.92381 -1.31159 -2.34514
upperback 0.370135 -1.89923 2.0994
thorax -5.03362 -0.85932 3.78499
lowerneck -16.754 -2.52178 -1.53444
upperneck 21.1847 -2.94955 -0.657466
head 9.46957 -1.5758 -0.355166
rclavicle 1.19768e-014 1.98785e-014
rhumerus -39.1445 -31.1046 -65.7776
rradius 16.618
rwrist 17.7521
rhand -16.8842 23.4963
rfingers 7.12502
rthumb 9.34707 -6.2765
lclavicle 1.19768e-014 1.98785e-014
lhumerus -24.0083 -0.926364 80.676
lradius 31.6622
lwrist 8.33084
lhand -32.6706 20.9797
lfingers 7.12502
lthumb -5.89617 50.8777
rfemur -29.9299 3.15507 22.3983
rtibia 30.7752
rfoot -2.78987 -5.10547
rtoes 3.44535
lfemur 15.4114 -4.80478 -25.3153
ltibia 29.004
lfoot -7.89928 -10.4573
ltoes -12.4287
133
root -0.0352481 17.6836 -3.56314 -2.52511 0.785152 0.138818
lowerback 9.84901 -1.39901 -2.51966
upperback 0.37426 -2.02988 2.18474
thorax -4.96773 -0.920555 3.98829
lowerneck -16.6315 -2.4282 -1.68045
upperneck 21.3131 -2.78037 -0.666949
head 9.49378 -1.51069 -0.311862
rclavicle -7.60351e-015 3.97569e-016
rhumerus -39.2114 -31.006 -65.6512
rradius 16.6684
rwrist 18.0242
rhand -16.9919 22.5556
rfingers 7.12502
rthumb 9.24318 -7.22179
lclavicle -7.60351e-015 3.97569e-016
lhumerus -24.5457 -0.616425 80.8683
lradius 31.7865
lwrist 8.68387
lhand -32.464 21.8904
lfingers 7.12502
lthumb -5.69676 51.7938
rfemur -29.8312 2.96047 22.5346
rtibia 32.1113
rfoot -3.12213 -4.42484
rtoes 2.86583
lfemur 14.909 -4.64158 -25.0983
ltibia 31.2226
lfoot -4.96449 -12.5905
ltoes -11.0195
